# xmcd
#
# Track frame offsets:
#	150
#	20327
#	42192
#	61080
#	79710
#	92215
#	109327
#	122417
#	140147
#	153217
#	178567
#	196652
#
# Disc length: 2879 seconds
#
# Revision: 1
# Processed by: cddbd v1.5.2PL0 Copyright (c) Steve Scherf et al.
# Submitted via: audiograbber 1.83.01
#
DISCID=920b3d0c
DTITLE=MARIA DAPAZ - MEU LUGAR
DYEAR=1900
DGENRE=
TTITLE0=NEM SE DESPEDIU DE MIM-SABIÁ-OLHA PRO CÉU
TTITLE1=MEU AMOR, MEU AMORZINHO
TTITLE2=ESTRADA DE CANINDÉ
TTITLE3=APAIXONADA EU TÔ
TTITLE4=MEU LUGAR
TTITLE5=KALÚ
TTITLE6=ROENDO UNHA
TTITLE7=PESSOA
TTITLE8=RIACHO DO NAVIO
TTITLE9=NOITES BRASILEIRAS-QUI NEM JILÓ
TTITLE10=CORAÇÃO DE BEIJA FLOR
TTITLE11=DE VOLTA PRA VOCÊ
EXTD=
EXTT0=
EXTT1=
EXTT2=
EXTT3=
EXTT4=
EXTT5=
EXTT6=
EXTT7=
EXTT8=
EXTT9=
EXTT10=
EXTT11=
PLAYORDER=
